<svg id="Layer_1" enable-background="new 0 0 512.001 512.001" height="512" viewBox="0 0 512.001 512.001" width="512" xmlns="http://www.w3.org/2000/svg"><g><g clip-rule="evenodd" fill-rule="evenodd"><path d="m7.994 0h301.015c4.395 0 7.994 3.6 7.994 7.994v429.114c0 4.394-3.6 7.994-7.994 7.994h-301.015c-4.394 0-7.994-3.6-7.994-7.994v-429.114c.001-4.394 3.6-7.994 7.994-7.994z" fill="#f9f7f8"/><path d="m284.007 0h25.001c4.395 0 7.994 3.6 7.994 7.994v429.114c0 4.394-3.6 7.994-7.994 7.994h-25.001c4.394 0 7.994-3.6 7.994-7.994v-429.114c0-4.394-3.6-7.994-7.994-7.994z" fill="#dddaec"/><path d="m385.007 512.001h33.987c4.422 0 8.023-3.601 8.023-7.994v-51.166c0-4.393-3.6-7.994-8.023-7.994h-33.987c-4.395 0-7.994 3.601-7.994 7.994v51.166c0 4.393 3.6 7.994 7.994 7.994zm-169.996 0h33.988c4.394 0 7.994-3.601 7.994-7.994v-67.692c0-4.422-3.6-8.022-7.994-8.022h-33.988c-4.394 0-7.994 3.6-7.994 8.022v67.692c0 4.393 3.6 7.994 7.994 7.994z" fill="#d57080"/><path d="m394.022 512.001h24.973c4.422 0 8.023-3.601 8.023-7.994v-51.166c0-4.393-3.6-7.994-8.023-7.994h-24.973c4.394 0 7.994 3.601 7.994 7.994v51.166c-.001 4.393-3.601 7.994-7.994 7.994zm-170.025 0h25.002c4.394 0 7.994-3.601 7.994-7.994v-67.692c0-4.422-3.6-8.022-7.994-8.022h-25.002c4.422 0 8.022 3.6 8.022 8.022v67.692c0 4.393-3.6 7.994-8.022 7.994z" fill="#d57080"/><path d="m470.019 512.001h33.988c4.394 0 7.993-3.601 7.993-7.994v-135.442c0-4.393-3.6-7.993-7.993-7.993h-33.988c-4.422 0-8.022 3.6-8.022 7.993v135.441c0 4.394 3.6 7.995 8.022 7.995zm-170.024 0h34.016c4.394 0 7.994-3.601 7.994-7.994v-105.507c0-4.393-3.6-7.994-7.994-7.994h-34.016c-4.393 0-7.994 3.6-7.994 7.994v105.507c0 4.393 3.6 7.994 7.994 7.994z" fill="#95d6a4"/><path d="m479.005 512.001h25.002c4.394 0 7.993-3.601 7.993-7.994v-135.442c0-4.393-3.6-7.993-7.993-7.993h-25.002c4.393 0 7.994 3.6 7.994 7.993v135.441c0 4.394-3.601 7.995-7.994 7.995zm-169.996 0h25.002c4.394 0 7.994-3.601 7.994-7.994v-105.507c0-4.393-3.6-7.994-7.994-7.994h-25.002c4.395 0 7.994 3.6 7.994 7.994v105.507c0 4.393-3.6 7.994-7.994 7.994z" fill="#78c2a4"/></g><path d="m456.214 301.469c-4.139.17-7.597-3.062-7.768-7.172-.17-4.139 3.061-7.597 7.172-7.767l33.251-1.332c4.139-.142 7.597 3.061 7.768 7.171l1.105 28.801c.142 4.11-3.09 7.569-7.229 7.711-4.11.17-7.568-3.061-7.71-7.2l-.511-12.87-75.005 74.382c-2.438 2.41-6.293 2.92-9.298.992l-81.724-52.243-106.414 43.994c-3.827 1.559-8.192-.255-9.751-4.082-1.588-3.798.255-8.192 4.054-9.751l110.014-45.468c2.438-1.021 5.131-.624 7.143.794l79.683 50.939 67.976-67.409z" fill="#cb5769"/><path clip-rule="evenodd" d="m85.268 165.433c-24.888 0-45.071-18.057-45.071-47.368 0-26.731 16.81-53.604 38.665-71.123 4.366-3.118 8.646-3.118 12.842 0 21.855 17.518 38.637 44.391 38.637 71.123-.002 29.311-20.185 47.368-45.073 47.368z" fill="#d57080" fill-rule="evenodd"/><path clip-rule="evenodd" d="m85.268 165.433c-4.337 0-8.533-.567-12.501-1.616 18.822-5.018 32.57-21.543 32.57-45.751s-13.748-48.502-32.57-65.879c1.984-1.814 3.997-3.572 6.094-5.244 4.366-3.118 8.646-3.118 12.842 0 21.855 17.518 38.637 44.391 38.637 71.123-.001 29.31-20.184 47.367-45.072 47.367z" fill="#cb5769" fill-rule="evenodd"/><path clip-rule="evenodd" d="m85.268 165.433c12.501 0 22.677-12.53 22.677-27.894 0-15.336-10.176-27.865-22.677-27.865-12.473 0-22.677 12.529-22.677 27.865-.001 15.364 10.204 27.894 22.677 27.894z" fill="#ffe09f" fill-rule="evenodd"/><path d="m185.445 59.67c-4.139 0-7.512-3.345-7.512-7.484 0-4.167 3.373-7.512 7.512-7.512h91.362c4.139 0 7.512 3.345 7.512 7.512 0 4.139-3.373 7.484-7.512 7.484zm0 35.009c-4.139 0-7.512-3.374-7.512-7.512 0-4.139 3.373-7.483 7.512-7.483h65.424c4.139 0 7.484 3.345 7.484 7.483 0 4.139-3.345 7.512-7.484 7.512z" fill="#cb5769"/><path d="m40.196 403.177c-4.139 0-7.512-3.345-7.512-7.512 0-4.139 3.374-7.483 7.512-7.483h51.761c4.139 0 7.483 3.345 7.483 7.483 0 4.167-3.345 7.512-7.483 7.512zm0-94.991c-4.139 0-7.512-3.373-7.512-7.512s3.374-7.512 7.512-7.512h236.611c4.139 0 7.512 3.373 7.512 7.512s-3.373 7.512-7.512 7.512zm0-90c-4.139 0-7.512-3.373-7.512-7.512s3.374-7.512 7.512-7.512h236.611c4.139 0 7.512 3.373 7.512 7.512s-3.373 7.512-7.512 7.512zm0 29.991c-4.139 0-7.512-3.345-7.512-7.512 0-4.139 3.374-7.484 7.512-7.484h236.611c4.139 0 7.512 3.345 7.512 7.484 0 4.167-3.373 7.512-7.512 7.512zm0 29.991c-4.139 0-7.512-3.345-7.512-7.484s3.374-7.512 7.512-7.512h236.611c4.139 0 7.512 3.373 7.512 7.512s-3.373 7.484-7.512 7.484z" fill="#5490f9"/></g></svg>