<svg height="512" viewBox="0 0 74 74" width="512" xmlns="http://www.w3.org/2000/svg"><g id="Icons"><path d="m46.462 46.495a18.582 18.582 0 0 1 18.017 18.573v5.932h-54.958v-5.932a18.582 18.582 0 0 1 18.017-18.573" fill="#27ccbc"/><path d="m46.462 46.495h-2.984a18.582 18.582 0 0 1 18.022 18.573v3.1h-51.979v2.832h54.958v-5.932a18.582 18.582 0 0 0 -18.017-18.573z" fill="#21b3a9"/><path d="m46.462 46.495-9.462 24.505-9.462-24.505z" fill="#eeefee"/><path d="m37 71.5a.5.5 0 0 1 -.467-.32l-9.462-24.505a.5.5 0 0 1 .467-.68h18.924a.5.5 0 0 1 .467.68l-9.462 24.505a.5.5 0 0 1 -.467.32zm-8.732-24.505 8.732 22.617 8.732-22.617z" fill="#323c6b"/><path d="m30.035 42.099-1.157 3.369-.003.001 8.125 3.837 8.125-3.837-.004-.001-1.147-3.34" fill="#fcd462"/><path d="m37 49.806a.506.506 0 0 1 -.214-.048l-8.125-3.837a.5.5 0 0 1 -.281-.521.523.523 0 0 1 .041-.141l1.142-3.323a.5.5 0 0 1 .945.325l-1.008 2.948 7.5 3.544 7.5-3.544-1-2.919a.5.5 0 0 1 .945-.325l1.135 3.3a.5.5 0 0 1 -.242.652l-8.125 3.837a.506.506 0 0 1 -.213.052z" fill="#323c6b"/><path d="m65.121 55.708a.5.5 0 0 1 -.445-.272 20.873 20.873 0 0 0 -4.921-6.3.5.5 0 0 1 .656-.755 21.881 21.881 0 0 1 5.155 6.6.5.5 0 0 1 -.445.728z" fill="#323c6b"/><path d="m57.708 47.485a.5.5 0 0 1 -.273-.081c-.066-.043-.135-.083-.2-.124l-.161-.1a.5.5 0 1 1 .525-.851l.144.086c.082.048.163.1.242.147a.5.5 0 0 1 -.273.919z" fill="#323c6b"/><path d="m23.008 25.061s-4.152.483-3.379 4.364a4.018 4.018 0 0 0 4.509 3.212" fill="#fcd462"/><path d="m23.831 33.145a4.428 4.428 0 0 1 -4.693-3.622 3.9 3.9 0 0 1 .565-3.178 5.1 5.1 0 0 1 3.247-1.781.5.5 0 0 1 .116.993 4.144 4.144 0 0 0 -2.559 1.381 2.952 2.952 0 0 0 -.39 2.389 3.53 3.53 0 0 0 3.991 2.81.482.482 0 0 1 .527.471.5.5 0 0 1 -.471.527c-.091.006-.204.01-.333.01z" fill="#323c6b"/><path d="m51.031 25.061s4.152.483 3.379 4.364a4.018 4.018 0 0 1 -4.51 3.212" fill="#fcd462"/><path d="m50.208 33.145c-.129 0-.242 0-.335-.009a.5.5 0 1 1 .057-1 3.531 3.531 0 0 0 3.99-2.81 2.948 2.948 0 0 0 -.393-2.394 4.111 4.111 0 0 0 -2.554-1.376.5.5 0 0 1 -.439-.556.506.506 0 0 1 .555-.439 5.1 5.1 0 0 1 3.247 1.781 3.9 3.9 0 0 1 .564 3.177 4.427 4.427 0 0 1 -4.692 3.626z" fill="#323c6b"/><path d="m51.469 25.35v2.75a19.535 19.535 0 0 1 -4.519 11.757c-2.18 2.636-5.619 6-9.187 6h-1.487c-3.568 0-7.007-3.36-9.187-6a19.535 19.535 0 0 1 -4.519-11.757v-4.327s.942-7.254 6.333-7.71c2.141.416 4.281 1.843 6.858 1.843a37.48 37.48 0 0 0 7.106-.644c5.797-.109 8.602 8.088 8.602 8.088z" fill="#fcd462"/><path d="m42.866 17.262c-.324.063-.666.113-1 .168 2.679.614 4.594 2.992 5.767 4.984a10.385 10.385 0 0 1 1.4 5.275v.411a19.535 19.535 0 0 1 -4.519 11.754c-2.083 2.519-5.316 5.69-8.711 5.968.158.013.316.027.475.027h1.487c3.568 0 7.007-3.36 9.187-6a19.535 19.535 0 0 0 4.517-11.749v-2.75s-2.805-8.197-8.603-8.088z" fill="#f7be56"/><path d="m27.54 46.546 1.335-1.077 8.125 3.837-6.379 5.407z" fill="#fff"/><path d="m30.621 55.213a.493.493 0 0 1 -.121-.013.5.5 0 0 1 -.343-.308l-3.081-8.168a.5.5 0 0 1 .154-.565l1.335-1.077a.5.5 0 0 1 .527-.063l8.125 3.837a.5.5 0 0 1 .109.833l-6.379 5.407a.5.5 0 0 1 -.326.117zm-2.485-8.506 2.7 7.166 5.246-4.447-7.14-3.372z" fill="#323c6b"/><path d="m39.792 51.673-1.05 2.155h-3.443l-1.063-2.179 2.764-2.343z" fill="#fe7058"/><path d="m38.741 54.328h-3.441a.5.5 0 0 1 -.449-.281l-1.062-2.179a.5.5 0 0 1 .126-.6l2.764-2.343a.5.5 0 0 1 .646 0l2.792 2.367a.5.5 0 0 1 .126.6l-1.053 2.155a.5.5 0 0 1 -.449.281zm-3.13-1h2.817l.743-1.525-2.171-1.842-2.144 1.818z" fill="#323c6b"/><path d="m34.016 63.377 1.283-9.549h3.443l1.272 9.469-3.014 7.703z" fill="#fe7058"/><path d="m37 71.5a.5.5 0 0 1 -.466-.318l-2.984-7.622a.5.5 0 0 1 -.029-.249l1.279-9.549a.5.5 0 0 1 .5-.434h3.442a.5.5 0 0 1 .5.434l1.272 9.469a.5.5 0 0 1 -.029.249l-3.014 7.7a.5.5 0 0 1 -.471.32zm-2.472-8.184 2.472 6.312 2.5-6.393-1.2-8.907h-2.564z" fill="#323c6b"/><path d="m37 71-9.462-24.505-4.968 5.041 3.674 1.483-1.501 3.101 8.734 14.88z" fill="#27ccbc"/><path d="m37 71.5h-3.523a.5.5 0 0 1 -.432-.247l-8.733-14.88a.5.5 0 0 1 -.019-.471l1.269-2.62-3.179-1.282a.5.5 0 0 1 -.169-.815l4.968-5.042a.509.509 0 0 1 .458-.143.5.5 0 0 1 .365.31l9.462 24.51a.5.5 0 0 1 -.467.68zm-3.237-1h2.508l-8.92-23.1-3.9 3.956 2.979 1.2a.5.5 0 0 1 .263.682l-1.383 2.862z" fill="#323c6b"/><path d="m37 71 9.462-24.505 4.968 5.041-3.674 1.483 1.501 3.101-8.734 14.88z" fill="#27ccbc"/><path d="m40.523 71.5h-3.523a.5.5 0 0 1 -.467-.68l9.467-24.506a.5.5 0 0 1 .36-.314.51.51 0 0 1 .458.139l4.968 5.042a.5.5 0 0 1 -.169.815l-3.179 1.283 1.269 2.62a.5.5 0 0 1 -.019.471l-8.733 14.88a.5.5 0 0 1 -.432.25zm-2.794-1h2.508l8.453-14.4-1.385-2.861a.5.5 0 0 1 .263-.682l2.979-1.2-3.9-3.956z" fill="#323c6b"/><path d="m47.194 65.574a.443.443 0 0 1 -.382-.668l.164-.279a.443.443 0 1 1 .765.449l-.164.279a.443.443 0 0 1 -.383.219z" fill="#fff"/><path d="m48.121 63.993a.443.443 0 0 1 -.382-.668l2.177-3.95a.443.443 0 1 1 .765.449l-2.181 3.95a.443.443 0 0 1 -.379.219z" fill="#fff"/><path d="m46.46 46.546-1.335-1.077-8.125 3.837 6.379 5.407z" fill="#fff"/><path d="m43.379 55.213a.5.5 0 0 1 -.323-.119l-6.379-5.407a.5.5 0 0 1 .109-.833l8.125-3.837a.5.5 0 0 1 .527.063l1.335 1.077a.5.5 0 0 1 .154.565l-3.08 8.168a.5.5 0 0 1 -.343.308.493.493 0 0 1 -.125.015zm-5.464-5.787 5.246 4.447 2.7-7.166-.81-.653z" fill="#323c6b"/><path d="m37.763 46.353h-1.487c-3.688 0-7.241-3.359-9.573-6.177a20.024 20.024 0 0 1 -4.633-12.076v-4.327c.045-.377 1.063-7.724 6.791-8.208a.494.494 0 0 1 .138.007 16.173 16.173 0 0 1 2.6.823 11.787 11.787 0 0 0 4.161 1.011 37.3 37.3 0 0 0 7.01-.635h.138c6.084 0 8.915 8.073 9.033 8.419a.478.478 0 0 1 .027.162v2.748a20.014 20.014 0 0 1 -4.634 12.072c-2.334 2.822-5.882 6.181-9.571 6.181zm-8.887-29.786c-4.861.474-5.8 7.2-5.81 7.271v4.266a18.978 18.978 0 0 0 4.4 11.435c2.193 2.652 5.5 5.814 8.8 5.814h1.486c3.3 0 6.608-3.162 8.8-5.815a18.968 18.968 0 0 0 4.417-11.438v-2.662c-.294-.8-2.978-7.677-7.99-7.677h-.1a36.957 36.957 0 0 1 -7.115.644 12.548 12.548 0 0 1 -4.515-1.076 16.041 16.041 0 0 0 -2.373-.762z" fill="#323c6b"/><path d="m51.469 25.35s-2.8-8.2-8.6-8.088a37.48 37.48 0 0 1 -7.106.644 27.445 27.445 0 0 1 -4.251-.349 7.346 7.346 0 0 0 -8.029 4.528 16.329 16.329 0 0 0 -.911 3.581 19.9 19.9 0 0 0 -1.117-4.842 12.429 12.429 0 0 1 8.083-15.745 27.485 27.485 0 0 1 8.472-1.246c8.662 0 13.458 4.806 13.458 8.087 1.675 1.09 4.795 7.752.001 13.43z" fill="#707583"/><path d="m51.469 11.92c0-3.28-4.8-8.087-13.458-8.087a27.485 27.485 0 0 0 -8.473 1.246 12.228 12.228 0 0 0 -4.465 2.5 12.259 12.259 0 0 1 2.647-1.188 27.484 27.484 0 0 1 8.472-1.245c8.662 0 13.458 4.806 13.458 8.087 1.462.951 4.021 6.147 1.462 11.228.234.539.356.889.356.889 4.795-5.678 1.676-12.34.001-13.43z" fill="#62667c"/><g fill="#323c6b"><path d="m51.154 5.9a.5.5 0 0 1 -.338-.132 16.7 16.7 0 0 0 -6.855-3.639.5.5 0 1 1 .266-.964 17.7 17.7 0 0 1 7.266 3.867.5.5 0 0 1 -.338.868z"/><path d="m53.393 8.646a.5.5 0 0 1 -.436-.254c-.118-.21-.25-.417-.389-.623a.5.5 0 1 1 .828-.56c.154.228.3.458.432.69a.5.5 0 0 1 -.436.746z"/><path d="m22.57 26.167h-.02a.5.5 0 0 1 -.48-.483 19.084 19.084 0 0 0 -1.092-4.7 12.929 12.929 0 0 1 8.413-16.384 28 28 0 0 1 8.62-1.268c8.771 0 13.716 4.835 13.949 8.33a9.046 9.046 0 0 1 2.44 5.264 10.792 10.792 0 0 1 -2.552 8.747.5.5 0 0 1 -.848-.161c-.027-.079-2.782-7.889-8.12-7.75a36.957 36.957 0 0 1 -7.115.644 27.813 27.813 0 0 1 -4.327-.354 6.873 6.873 0 0 0 -7.485 4.213 15.932 15.932 0 0 0 -.881 3.458.5.5 0 0 1 -.502.444zm20.338-9.4c5 0 7.8 5.445 8.707 7.583a9.748 9.748 0 0 0 1.8-7.281 7.688 7.688 0 0 0 -2.215-4.73.5.5 0 0 1 -.228-.419c0-3.168-4.93-7.586-12.958-7.586a27.044 27.044 0 0 0 -8.325 1.223 11.753 11.753 0 0 0 -7.016 5.888 11.877 11.877 0 0 0 -.742 9.225q.432 1.313.7 2.375c.108-.362.235-.745.386-1.137a7.873 7.873 0 0 1 8.571-4.844 26.826 26.826 0 0 0 4.175.343 37.3 37.3 0 0 0 7.01-.635z"/><path d="m64.479 71.5h-54.958a.5.5 0 0 1 -.5-.5v-5.932a18.987 18.987 0 0 1 18.5-19.074.523.523 0 0 1 .515.485.5.5 0 0 1 -.485.515 17.991 17.991 0 0 0 -17.53 18.074v5.432h53.958v-5.432a17.991 17.991 0 0 0 -17.532-18.073.5.5 0 0 1 -.485-.515.522.522 0 0 1 .515-.485 18.987 18.987 0 0 1 18.5 19.074v5.931a.5.5 0 0 1 -.498.5z"/></g></g></svg>