<svg id="Capa_1" enable-background="new 0 0 497 497" height="512" viewBox="0 0 497 497" width="512" xmlns="http://www.w3.org/2000/svg"><g><path d="m210.42 212.711-93.953-35.001c-21.478-8.001-32.403-31.899-24.402-53.377.614-1.648 2.448-2.486 4.096-1.872l87.985 32.777c23.126 8.616 34.889 34.347 26.274 57.473z" fill="#8c818f"/><ellipse cx="84.498" cy="339.808" fill="#8c818f" rx="84.498" ry="83.993"/><ellipse cx="84.498" cy="339.808" fill="#fff" rx="47.951" ry="47.664"/><ellipse cx="412.502" cy="339.808" fill="#8c818f" rx="84.498" ry="83.993"/><path d="m84.498 255.814c-5.122 0-10.129.478-15 1.346 39.507 7.04 69.498 41.35 69.498 82.647s-29.991 75.607-69.498 82.647c4.871.868 9.878 1.346 15 1.346 46.667 0 84.498-37.605 84.498-83.993s-37.831-83.993-84.498-83.993z" fill="#766d78"/><path d="m411.496 255.814c-4.946 0-9.784.446-14.497 1.257 39.755 6.837 70.001 41.265 70.001 82.737s-30.246 75.9-70.001 82.737c4.713.811 9.551 1.257 14.497 1.257 46.667 0 84.498-37.605 84.498-83.993s-37.831-83.995-84.498-83.995z" fill="#766d78"/><ellipse cx="412.502" cy="339.808" fill="#fff" rx="47.951" ry="47.664"/><path d="m403.629 347.869-69.042-205.37c-1.709-5.082-4.993-9.487-9.376-12.575l-27.659-19.487 14.027-19.632 37.159 23.95c4.806 3.098 8.416 7.737 10.238 13.157l70.971 211.11c2.457 7.309-1.513 15.221-8.843 17.618-7.245 2.37-15.046-1.545-17.475-8.771z" fill="#c8c3ca"/><ellipse cx="297.552" cy="96.078" fill="#a29aa5" rx="22.879" ry="22.879" transform="matrix(.707 -.707 .707 .707 19.214 238.542)"/><path d="m90.113 336.373 70.836-124.418 39.417 28.083-69.289 120.28z" fill="#b1abb4"/><path d="m221.012 369.805-128.748-13.58c-4.75-.501-8.356-4.507-8.356-9.284v-6.615c0-4.281 2.912-8.014 7.065-9.055l119.993-30.082c18.947-2.774 36.556 10.337 39.33 29.285 2.775 18.948-10.336 36.557-29.284 39.331z" fill="#e3e0e4"/><path d="m282.421 147.514c2.057-.071 4.122-.078 6.194-.022 12.876.349 25.564 3.165 37.379 8.296l22.621 9.823 19.22-18.928c8.079-7.956 20.736-8.879 29.883-2.178l34.353 25.163c8.966 6.567-6.418 16.541-6.269 26.596.142 9.593 16.217 19.261 8.124 26.113l-70.227 59.46c-19.767 16.736-31.166 41.323-31.166 67.224 0 11.931-9.672 21.602-21.602 21.602h-112.36c-10.603 0-15.601-13.093-7.694-20.158l28.181-25.183c2.452-2.191 3.853-5.323 3.853-8.611v-33.639c0-4.17-2.248-8.016-5.881-10.062l-159.543-89.842c-1.262-.71-1.431-2.46-.329-3.399 20.833-17.757 50-22.004 75.032-10.925l49.434 21.879c9.172 4.06 19.927 1.49 26.273-6.278 18.421-22.547 45.625-35.939 74.524-36.931" fill="#f7d958"/><path d="m432.071 169.667-34.353-25.163c-8.679-6.357-20.511-5.84-28.601 1.025l32.954 24.138c17.521 12.834 18.431 38.675 1.855 52.709l-70.227 59.46c-19.767 16.736-31.166 41.323-31.166 67.224 0 11.931-9.672 21.602-21.602 21.602h30c11.931 0 21.602-9.672 21.602-21.602 0-25.9 11.399-50.487 31.166-67.224l70.227-59.46c8.118-6.873-7.958-16.578-8.126-26.2-.167-9.622 15.574-19.161 7.327-25.703-.344-.274-.696-.543-1.056-.806z" fill="#f3c625"/><path d="m433.12 170.483-40.638 10.315c-19.383 4.92-17.833 32.951 1.973 35.705l39.843 5.539c7.835-6.831 11.634-16.341 11.494-25.779-.143-9.646-4.402-19.219-12.672-25.78z" fill="#fff"/><path d="m433.12 170.483-24.053 6.105c9.269 12.299 9.007 29.766-1.166 41.784l26.397 3.67c15.844-13.812 15.183-38.578-1.178-51.559z" fill="#e7e7e7"/><path d="" style="fill:none;stroke:#000;stroke-width:15;stroke-linecap:round;stroke-linejoin:round;stroke-miterlimit:10"/><g fill="#f3c625"><path d="m293.683 306.25c-2.214 0-4.374-1.125-5.603-3.158l-16.027-26.533c-14.237-23.569-36.454-41.371-62.559-50.127l-20.649-6.925c-3.424-1.149-5.268-4.855-4.12-8.278 1.148-3.424 4.855-5.267 8.277-4.12l20.649 6.926c29.04 9.74 53.757 29.544 69.595 55.763l16.027 26.533c1.867 3.091.874 7.11-2.216 8.977-1.056.638-2.223.942-3.374.942z"/><path d="m229.566 360.182c-1.627 0-3.254-.62-4.495-1.862-2.482-2.482-2.482-6.507 0-8.989l21.874-21.874c2.484-2.483 6.508-2.483 8.99 0 2.482 2.482 2.482 6.507 0 8.989l-21.874 21.874c-1.242 1.241-2.869 1.862-4.495 1.862z"/><path d="m263.807 360.182c-1.627 0-3.254-.62-4.495-1.862-2.482-2.482-2.482-6.507 0-8.989l21.874-21.874c2.484-2.483 6.508-2.483 8.99 0 2.482 2.482 2.482 6.507 0 8.989l-21.874 21.874c-1.241 1.241-2.868 1.862-4.495 1.862z"/></g></g></svg>